<svg width="64" height="109" viewBox="0 0 64 109" fill="none" xmlns="http://www.w3.org/2000/svg">
<rect y="0.0256348" width="64" height="108" rx="5" fill="#171717"/>
<path d="M22 32.0256C22 32.0256 25 25.0256 32 25.0256C39 25.0256 42 32.0256 42 32.0256C42 32.0256 39 39.0256 32 39.0256C25 39.0256 22 32.0256 22 32.0256Z" stroke="#737373" stroke-width="2" stroke-linecap="round" stroke-linejoin="round"/>
<path d="M32 35.0256C33.6569 35.0256 35 33.6825 35 32.0256C35 30.3688 33.6569 29.0256 32 29.0256C30.3431 29.0256 29 30.3688 29 32.0256C29 33.6825 30.3431 35.0256 32 35.0256Z" stroke="#737373" stroke-width="2" stroke-linecap="round" stroke-linejoin="round"/>
<path d="M22 76.0256C22 76.0256 25 69.0256 32 69.0256C39 69.0256 42 76.0256 42 76.0256C42 76.0256 39 83.0256 32 83.0256C25 83.0256 22 76.0256 22 76.0256Z" stroke="black" stroke-width="2" stroke-linecap="round" stroke-linejoin="round"/>
<path d="M32 79.0256C33.6569 79.0256 35 77.6825 35 76.0256C35 74.3688 33.6569 73.0256 32 73.0256C30.3431 73.0256 29 74.3688 29 76.0256C29 77.6825 30.3431 79.0256 32 79.0256Z" stroke="black" stroke-width="2" stroke-linecap="round" stroke-linejoin="round"/>
</svg>
